#N canvas 827 239 966 748 12;
#X obj 130 485 dac~, f 6;
#X obj 130 458 *~, f 5;
#X obj 209 386 hsl 172 20 0.01 0.5 1 0 empty empty vol -2 -10 0 12 #fcfcfc #000000 #00ffff 0 1;
#X text 483 20 input p5js, f 9;
#N canvas 733 172 450 300 scaleSelector 0;
#X obj 781 136 t b b;
#X obj 841 136 t b b;
#X obj 902 136 t b b;
#X obj 963 136 t b b;
#X obj 781 99 sel 0 1 2 3, f 12;
#X obj 681 32 inlet;
#X obj 681 61 t b f;
#X msg 1046 184 7;
#X msg 1079 184 5;
#X msg 781 185 0;
#X msg 841 185 1;
#X msg 902 185 2;
#X msg 963 184 3;
#X obj 1046 242 outlet;
#X obj 681 242 outlet;
#X obj 781 242 outlet;
#X connect 0 0 9 0;
#X connect 0 1 7 0;
#X connect 1 0 10 0;
#X connect 1 1 7 0;
#X connect 2 0 11 0;
#X connect 2 1 8 0;
#X connect 3 0 12 0;
#X connect 3 1 8 0;
#X connect 4 0 0 0;
#X connect 4 1 1 0;
#X connect 4 2 2 0;
#X connect 4 3 3 0;
#X connect 5 0 6 0;
#X connect 6 0 14 0;
#X connect 6 1 4 0;
#X connect 7 0 13 0;
#X connect 8 0 13 0;
#X connect 9 0 15 0;
#X connect 10 0 15 0;
#X connect 11 0 15 0;
#X connect 12 0 15 0;
#X restore 259 236 pd scaleSelector;
#X f 17;
#N canvas 733 172 450 300 scaleFreqs 0;
#X msg 535 194 60;
#X obj 535 218 +;
#X obj 535 143 sel 0;
#X obj 597 162 t b f;
#X msg 580 194 0;
#X obj 535 169 t b f;
#N canvas 733 172 450 300 JI_major 0;
#X obj 618 688 expr $f1 * 9 / 8;
#X text 627 662 2;
#X obj 744 689 expr $f1 * 5 / 4;
#X text 746 662 3;
#X text 883 662 4;
#X text 1002 662 5;
#X obj 874 688 expr $f1 * 4 / 3;
#X obj 1000 689 expr $f1 * 3 / 2;
#X text 1139 662 6;
#X text 1258 662 7;
#X obj 1130 688 expr $f1 * 5 / 3;
#X obj 1256 689 expr $f1 * 15 / 8;
#X obj 1391 689 expr $f1 * 2;
#X text 1393 662 8;
#X text 583 662 1;
#X obj 566 597 mtof;
#X obj 566 562 inlet;
#X obj 566 728 outlet;
#X obj 566 626 t f f f f f f f f;
#X obj 566 689 f;
#X connect 0 0 17 0;
#X connect 2 0 17 0;
#X connect 6 0 17 0;
#X connect 7 0 17 0;
#X connect 10 0 17 0;
#X connect 11 0 17 0;
#X connect 12 0 17 0;
#X connect 15 0 18 0;
#X connect 16 0 15 0;
#X connect 18 0 12 0;
#X connect 18 1 11 0;
#X connect 18 2 10 0;
#X connect 18 3 7 0;
#X connect 18 4 6 0;
#X connect 18 5 2 0;
#X connect 18 6 0 0;
#X connect 18 7 19 0;
#X connect 19 0 17 0;
#X restore 535 331 pd JI_major;
#N canvas 733 172 450 300 JI_minor 0;
#X obj 598 688 expr $f1 * 9 / 8;
#X text 607 662 2;
#X text 706 662 3;
#X text 823 662 4;
#X text 922 662 5;
#X obj 814 688 expr $f1 * 4 / 3;
#X obj 920 689 expr $f1 * 3 / 2;
#X text 1039 662 6;
#X text 1138 662 7;
#X obj 1246 689 expr $f1 * 2;
#X text 1248 662 8;
#X text 574 662 1;
#X obj 704 689 expr $f1 * 6 / 5;
#X obj 1030 688 expr $f1 * 8 / 5;
#X obj 1136 689 expr $f1 * 9 / 5;
#X obj 554 590 mtof;
#X obj 554 558 inlet;
#X obj 554 628 t f f f f f f f f, f 54;
#X obj 554 727 outlet;
#X obj 554 688 f;
#X connect 0 0 18 0;
#X connect 5 0 18 0;
#X connect 6 0 18 0;
#X connect 9 0 18 0;
#X connect 12 0 18 0;
#X connect 13 0 18 0;
#X connect 14 0 18 0;
#X connect 15 0 17 0;
#X connect 16 0 15 0;
#X connect 17 0 9 0;
#X connect 17 1 14 0;
#X connect 17 2 13 0;
#X connect 17 3 6 0;
#X connect 17 4 5 0;
#X connect 17 5 12 0;
#X connect 17 6 0 0;
#X connect 17 7 19 0;
#X connect 19 0 18 0;
#X restore 625 331 pd JI_minor;
#N canvas 733 172 450 300 pent_major 0;
#X text 627 582 2;
#X text 746 582 3;
#X text 882 582 5;
#X text 1008 582 6;
#X text 573 582 1;
#X obj 618 608 + 2;
#X obj 744 609 + 4;
#X obj 874 608 + 7;
#X obj 1000 609 + 9;
#X obj 1130 608 + 12;
#X obj 563 639 mtof;
#X obj 618 639 mtof;
#X obj 744 639 mtof;
#X obj 874 639 mtof;
#X obj 1000 639 mtof;
#X obj 1130 639 mtof;
#X text 1139 582 8;
#X obj 563 552 t f f f f f f, f 43;
#X obj 563 518 inlet;
#X obj 563 688 outlet;
#X connect 5 0 11 0;
#X connect 6 0 12 0;
#X connect 7 0 13 0;
#X connect 8 0 14 0;
#X connect 9 0 15 0;
#X connect 10 0 19 0;
#X connect 11 0 19 0;
#X connect 12 0 19 0;
#X connect 13 0 19 0;
#X connect 14 0 19 0;
#X connect 15 0 19 0;
#X connect 17 0 9 0;
#X connect 17 1 8 0;
#X connect 17 2 7 0;
#X connect 17 3 6 0;
#X connect 17 4 5 0;
#X connect 17 5 10 0;
#X connect 18 0 17 0;
#X restore 711 331 pd pent_major;
#N canvas 733 172 450 300 pent_minor 0;
#X text 762 662 5;
#X obj 566 605 inlet;
#X text 576 662 1;
#X obj 754 688 + 7;
#X obj 890 688 + 12;
#X obj 566 719 mtof;
#X obj 618 719 mtof;
#X obj 684 719 mtof;
#X obj 754 719 mtof;
#X obj 820 719 mtof;
#X obj 890 719 mtof;
#X text 899 662 8;
#X obj 618 688 + 3;
#X text 627 662 3;
#X text 686 662 4;
#X obj 684 689 + 5;
#X obj 820 689 + 10;
#X text 828 662 7;
#X obj 566 634 t f f f f f f, f 39;
#X obj 566 762 outlet;
#X connect 1 0 18 0;
#X connect 3 0 8 0;
#X connect 4 0 10 0;
#X connect 5 0 19 0;
#X connect 6 0 19 0;
#X connect 7 0 19 0;
#X connect 8 0 19 0;
#X connect 9 0 19 0;
#X connect 10 0 19 0;
#X connect 12 0 6 0;
#X connect 15 0 7 0;
#X connect 16 0 9 0;
#X connect 18 0 4 0;
#X connect 18 1 16 0;
#X connect 18 2 3 0;
#X connect 18 3 15 0;
#X connect 18 4 12 0;
#X connect 18 5 5 0;
#X restore 813 331 pd pent_minor;
#X obj 535 53 inlet;
#X obj 535 371 t f b;
#X obj 566 447 + -1, f 5;
#X msg 566 403 1;
#X msg 451 400 -1;
#X obj 535 110 t f f;
#X obj 535 521 tabwrite scaleFreqs;
#X obj 535 247 f;
#N canvas 733 172 450 300 scaleHandler 0;
#X obj 535 291 spigot;
#X obj 685 291 spigot;
#X obj 835 291 spigot;
#X obj 949 291 spigot;
#X obj 977 107 sel 0 1 2 3;
#N canvas 0 22 450 300 selRouter 0;
#X obj 987 198 inlet;
#X msg 987 227 1;
#X obj 987 256 outlet;
#X obj 1041 256 outlet;
#X msg 1041 227 0;
#X connect 0 0 1 0;
#X connect 0 0 4 0;
#X connect 1 0 2 0;
#X connect 4 0 3 0;
#X restore 977 234 pd selRouter;
#N canvas 0 22 450 300 selRouter 0;
#X obj 987 198 inlet;
#X msg 987 227 1;
#X obj 987 256 outlet;
#X obj 1041 256 outlet;
#X msg 1041 227 0;
#X connect 0 0 1 0;
#X connect 0 0 4 0;
#X connect 1 0 2 0;
#X connect 4 0 3 0;
#X restore 1070 234 pd selRouter;
#N canvas 0 22 450 300 selRouter 0;
#X obj 987 198 inlet;
#X msg 987 227 1;
#X obj 987 256 outlet;
#X obj 1041 256 outlet;
#X msg 1041 227 0;
#X connect 0 0 1 0;
#X connect 0 0 4 0;
#X connect 1 0 2 0;
#X connect 4 0 3 0;
#X restore 1163 234 pd selRouter;
#N canvas 0 22 450 300 selRouter 0;
#X obj 987 198 inlet;
#X msg 987 227 1;
#X obj 987 256 outlet;
#X obj 1041 256 outlet;
#X msg 1041 227 0;
#X connect 0 0 1 0;
#X connect 0 0 4 0;
#X connect 1 0 2 0;
#X connect 4 0 3 0;
#X restore 1256 234 pd selRouter;
#X obj 535 247 inlet;
#X obj 535 247 inlet;
#X obj 535 247 inlet;
#X obj 535 247 inlet;
#X obj 977 78 inlet;
#X obj 535 331 outlet;
#X obj 685 331 outlet;
#X obj 835 331 outlet;
#X obj 949 331 outlet;
#X connect 0 0 14 0;
#X connect 1 0 15 0;
#X connect 2 0 16 0;
#X connect 3 0 17 0;
#X connect 4 0 5 0;
#X connect 4 1 6 0;
#X connect 4 2 7 0;
#X connect 4 3 8 0;
#X connect 5 0 0 1;
#X connect 5 1 1 1;
#X connect 5 1 2 1;
#X connect 5 1 3 1;
#X connect 6 0 1 1;
#X connect 6 1 3 1;
#X connect 6 1 2 1;
#X connect 6 1 0 1;
#X connect 7 0 2 1;
#X connect 7 1 0 1;
#X connect 7 1 1 1;
#X connect 7 1 3 1;
#X connect 8 0 3 1;
#X connect 8 1 2 1;
#X connect 8 1 1 1;
#X connect 8 1 0 1;
#X connect 9 0 0 0;
#X connect 10 0 1 0;
#X connect 11 0 2 0;
#X connect 12 0 3 0;
#X connect 13 0 4 0;
#X restore 535 289 pd scaleHandler;
#X obj 566 476 i;
#X obj 740 53 inlet;
#X text 790 56 noteTrig;
#X obj 872 53 inlet;
#X text 920 52 scale;
#X connect 0 0 1 0;
#X connect 1 0 17 0;
#X connect 2 0 5 0;
#X connect 2 1 3 0;
#X connect 3 0 0 0;
#X connect 3 1 1 1;
#X connect 4 0 1 1;
#X connect 5 0 0 0;
#X connect 5 1 4 0;
#X connect 6 0 11 0;
#X connect 7 0 11 0;
#X connect 8 0 11 0;
#X connect 9 0 11 0;
#X connect 10 0 15 0;
#X connect 11 0 16 0;
#X connect 11 1 13 0;
#X connect 12 0 19 0;
#X connect 13 0 12 0;
#X connect 14 0 12 1;
#X connect 15 0 2 0;
#X connect 15 1 14 0 48......................D8+++O.....Q++++G....fn++++A....H5+++uCA...;
#X connect 17 0 18 0;
#X connect 17 0 18 1;
#X connect 17 0 18 2;
#X connect 17 0 18 3;
#X connect 18 0 6 0;
#X connect 18 1 7 0;
#X connect 18 2 8 0;
#X connect 18 3 9 0;
#X connect 19 0 12 1;
#X connect 19 0 16 1;
#X connect 20 0 17 0 32.................mB...D2++++o....w8+++6J....;
#X connect 20 0 14 0 48.................c....zw+++eG....c7+++2F...PG++++sA...zw++++QA...;
#X connect 22 0 18 4 32.................CC...zv++++v....M7+++SM....;
#X restore 281 205 pd scaleFreqs;
#X f 14;
#N canvas 733 172 450 300 oscNote 0;
#X obj 204 510 int;
#X obj 204 569 lop~ 5, f 7;
#X obj 204 486 inlet;
#X obj 363 623 outlet;
#X obj 204 623 outlet~;
#X obj 164 422 loadbang;
#X obj 164 451 del 50;
#X text 334 648 note slider range;
#X obj 527 623 outlet;
#X text 471 648 note slider position control;
#X obj 527 588 *;
#X obj 204 541 tabread scaleFreqs;
#X obj 527 525 r noteCtrl;
#X obj 363 588 r noteSliderRange;
#X obj 538 555 r noteCtrlMultiplier;
#X obj 204 597 osc~ 110, f 9;
#X msg 164 480 0;
#X connect 0 0 11 0;
#X connect 1 0 15 0;
#X connect 2 0 0 0;
#X connect 5 0 6 0;
#X connect 6 0 16 0;
#X connect 10 0 8 0;
#X connect 11 0 1 0;
#X connect 12 0 10 0;
#X connect 13 0 3 0;
#X connect 14 0 10 1;
#X connect 15 0 4 0;
#X connect 16 0 0 0;
#X restore 130 333 pd oscNote;
#X f 12;
#N canvas 733 172 450 300 vca 0;
#X obj 300 635 line, f 7;
#X obj 300 659 lop~ 1, f 7;
#X msg 300 611 \$1 30, f 7;
#X obj 300 512 inlet;
#X obj 300 753 outlet~;
#X obj 300 720 -~;
#X obj 376 640 *~ 0.05;
#X obj 376 720 *~;
#X obj 387 685 *~ 0.2;
#X obj 300 685 *~ 0.8, f 11;
#X obj 376 611 osc~ 0.5;
#X obj 325 548 != 0.01;
#X obj 300 577 *;
#X connect 0 0 1 0;
#X connect 1 0 8 0;
#X connect 1 0 9 0;
#X connect 2 0 0 0;
#X connect 3 0 12 0;
#X connect 3 0 11 0;
#X connect 5 0 4 0;
#X connect 6 0 7 0;
#X connect 7 0 5 1;
#X connect 8 0 7 1;
#X connect 9 0 5 0;
#X connect 10 0 6 0;
#X connect 11 0 12 1;
#X connect 12 0 2 0;
#X restore 206 419 pd vca;
#X f 8;
#X msg 75 101 0;
#X obj 454 71 vsl 17 128 -1 1 0 0 empty empty rX 0 -9 0 10 #191919 #e1e1e1 #00e1e1 0 1;
#X obj 515 71 vsl 17 128 -1 1 0 0 empty empty rZ 0 -9 0 10 #191919 #e1e1e1 #00e1e1 0 1;
#X msg 141 137 0;
#X msg 159 111 1;
#X msg 175 137 2;
#X msg 191 111 3;
#X msg 212 137 4;
#X msg 246 137 5;
#X msg 264 111 6;
#X msg 280 137 7;
#X msg 296 111 8;
#X msg 317 137 9;
#X msg 328 111 10;
#X msg 351 137 11;
#X msg 130 205 0;
#X msg 164 205 1;
#X msg 199 205 2;
#X msg 231 205 3;
#X obj 75 130 t b b;
#X obj 130 300 *;
#N canvas 0 22 450 300 init 0;
#X obj 69 44 loadbang, f 10;
#X msg 69 125 \; pd dsp 1, f 10;
#X obj 69 72 t b b;
#X obj 69 172 table scaleFreqs 8;
#X obj 166 118 outlet;
#X connect 0 0 2 0;
#X connect 2 0 1 0;
#X connect 2 1 4 0;
#X restore 75 70 pd init;
#X connect 1 0 0 0;
#X connect 1 0 0 1;
#X connect 2 0 7 0;
#X connect 4 0 5 1 48.................I.....I...PB....PB...f7+++eO....H++++2C...fy++++;
#X connect 4 1 5 2 48.................L....zD....C....MA...D7+++uL....A++++KC...fy++++;
#X connect 4 2 28 1 32.................U....bx+++eE....m7+++yB....;
#X connect 6 0 1 0;
#X connect 7 0 1 1 32.................J.....7+++uB.....++++GB....;
#X connect 8 0 27 0;
#X connect 9 0 2 0 32.................kB...3v+++eo....N7+++uK....;
#X connect 10 0 28 0 64.................iA...Lz++++X....C8+++OF....A++++iA...Pv++++P....E5+++OD...Pg9+++kA....;
#X connect 11 0 5 0;
#X connect 12 0 5 0;
#X connect 13 0 5 0;
#X connect 14 0 5 0;
#X connect 15 0 5 0;
#X connect 16 0 5 0;
#X connect 17 0 5 0;
#X connect 18 0 5 0;
#X connect 19 0 5 0;
#X connect 20 0 5 0;
#X connect 21 0 5 0;
#X connect 22 0 5 0;
#X connect 23 0 4 0;
#X connect 24 0 4 0;
#X connect 25 0 4 0;
#X connect 26 0 4 0;
#X connect 27 0 23 0 32.................m....bC...vI....2....bC....;
#X connect 27 1 11 0 48......................nA.........Z....n9++++L....p++++OC....8++++;
#X connect 28 0 6 0;
#X connect 29 0 8 0;
